<?xml version="1.0" encoding="UTF-8"?>
<svg xmlns="http://www.w3.org/2000/svg" xmlns:xlink="http://www.w3.org/1999/xlink" width="539.96pt" height="539.95pt" viewBox="0 0 539.96 539.95" version="1.1">
<defs>
<clipPath id="clip1">
  <path d="M 0 0 L 539.960938 0 L 539.960938 539.949219 L 0 539.949219 Z M 0 0 "/>
</clipPath>
<clipPath id="clip2">
  <path d="M 294 133 L 349 133 L 349 175 L 294 175 Z M 294 133 "/>
</clipPath>
<clipPath id="clip3">
  <path d="M 409.019531 269.503906 C 409.019531 344.671875 348.085938 405.613281 272.914063 405.613281 C 197.742188 405.613281 136.804688 344.671875 136.804688 269.503906 C 136.804688 194.339844 197.742188 133.398438 272.914063 133.398438 C 348.085938 133.398438 409.019531 194.339844 409.019531 269.503906 Z M 409.019531 269.503906 "/>
</clipPath>
<clipPath id="clip4">
  <path d="M 257 133 L 286 133 L 286 185 L 257 185 Z M 257 133 "/>
</clipPath>
<clipPath id="clip5">
  <path d="M 409.019531 269.503906 C 409.019531 344.671875 348.085938 405.613281 272.914063 405.613281 C 197.742188 405.613281 136.804688 344.671875 136.804688 269.503906 C 136.804688 194.339844 197.742188 133.398438 272.914063 133.398438 C 348.085938 133.398438 409.019531 194.339844 409.019531 269.503906 Z M 409.019531 269.503906 "/>
</clipPath>
<clipPath id="clip6">
  <path d="M 257 223 L 286 223 L 286 406 L 257 406 Z M 257 223 "/>
</clipPath>
<clipPath id="clip7">
  <path d="M 409.019531 269.503906 C 409.019531 344.671875 348.085938 405.613281 272.914063 405.613281 C 197.742188 405.613281 136.804688 344.671875 136.804688 269.503906 C 136.804688 194.339844 197.742188 133.398438 272.914063 133.398438 C 348.085938 133.398438 409.019531 194.339844 409.019531 269.503906 Z M 409.019531 269.503906 "/>
</clipPath>
<clipPath id="clip8">
  <path d="M 196 133 L 317 133 L 317 255 L 196 255 Z M 196 133 "/>
</clipPath>
<clipPath id="clip9">
  <path d="M 409.019531 269.503906 C 409.019531 344.671875 348.085938 405.613281 272.914063 405.613281 C 197.742188 405.613281 136.804688 344.671875 136.804688 269.503906 C 136.804688 194.339844 197.742188 133.398438 272.914063 133.398438 C 348.085938 133.398438 409.019531 194.339844 409.019531 269.503906 Z M 409.019531 269.503906 "/>
</clipPath>
<clipPath id="clip10">
  <path d="M 294 182 L 395 182 L 395 382 L 294 382 Z M 294 182 "/>
</clipPath>
<clipPath id="clip11">
  <path d="M 409.019531 269.503906 C 409.019531 344.671875 348.085938 405.613281 272.914063 405.613281 C 197.742188 405.613281 136.804688 344.671875 136.804688 269.503906 C 136.804688 194.339844 197.742188 133.398438 272.914063 133.398438 C 348.085938 133.398438 409.019531 194.339844 409.019531 269.503906 Z M 409.019531 269.503906 "/>
</clipPath>
<clipPath id="clip12">
  <path d="M 151 182 L 253 182 L 253 382 L 151 382 Z M 151 182 "/>
</clipPath>
<clipPath id="clip13">
  <path d="M 409.019531 269.503906 C 409.019531 344.671875 348.085938 405.613281 272.914063 405.613281 C 197.742188 405.613281 136.804688 344.671875 136.804688 269.503906 C 136.804688 194.339844 197.742188 133.398438 272.914063 133.398438 C 348.085938 133.398438 409.019531 194.339844 409.019531 269.503906 Z M 409.019531 269.503906 "/>
</clipPath>
<clipPath id="clip14">
  <path d="M 212 285 L 240 285 L 240 403 L 212 403 Z M 212 285 "/>
</clipPath>
<clipPath id="clip15">
  <path d="M 409.019531 269.503906 C 409.019531 344.671875 348.085938 405.613281 272.914063 405.613281 C 197.742188 405.613281 136.804688 344.671875 136.804688 269.503906 C 136.804688 194.339844 197.742188 133.398438 272.914063 133.398438 C 348.085938 133.398438 409.019531 194.339844 409.019531 269.503906 Z M 409.019531 269.503906 "/>
</clipPath>
</defs>
<g id="surface1">
<path style=" stroke:none;fill-rule:nonzero;fill:rgb(9.411621%,27.450562%,55.685425%);fill-opacity:1;" d="M 2.5 269.964844 C 2.5 122.246094 122.265625 2.496094 269.976563 2.496094 C 417.695313 2.496094 537.464844 122.246094 537.464844 269.964844 C 537.464844 417.699219 417.695313 537.449219 269.976563 537.449219 C 122.265625 537.449219 2.5 417.699219 2.5 269.964844 "/>
<g clip-path="url(#clip1)" clip-rule="nonzero">
<path style="fill:none;stroke-width:50;stroke-linecap:butt;stroke-linejoin:miter;stroke:rgb(53.29895%,47.499084%,31.799316%);stroke-opacity:1;stroke-miterlimit:3.864;" d="M 25 2699.851562 C 25 4177.039062 1222.65625 5374.539062 2699.765625 5374.539062 C 4176.953125 5374.539062 5374.648438 4177.039062 5374.648438 2699.851562 C 5374.648438 1222.507812 4176.953125 25.007812 2699.765625 25.007812 C 1222.65625 25.007812 25 1222.507812 25 2699.851562 Z M 25 2699.851562 " transform="matrix(0.1,0,0,-0.1,0,539.95)"/>
</g>
<path style=" stroke:none;fill-rule:nonzero;fill:rgb(18.03894%,16.470337%,14.509583%);fill-opacity:1;" d="M 50.589844 269.964844 C 50.589844 148.804688 148.824219 50.574219 269.976563 50.574219 C 391.144531 50.574219 489.386719 148.804688 489.386719 269.964844 C 489.386719 391.140625 391.144531 489.359375 269.976563 489.359375 C 148.824219 489.359375 50.589844 391.140625 50.589844 269.964844 "/>
<path style=" stroke:none;fill-rule:nonzero;fill:rgb(18.03894%,16.470337%,14.509583%);fill-opacity:1;" d="M 50.589844 269.964844 C 50.589844 148.804688 148.824219 50.574219 269.976563 50.574219 C 391.144531 50.574219 489.386719 148.804688 489.386719 269.964844 C 489.386719 391.140625 391.144531 489.359375 269.976563 489.359375 C 148.824219 489.359375 50.589844 391.140625 50.589844 269.964844 "/>
<path style=" stroke:none;fill-rule:nonzero;fill:rgb(53.29895%,47.499084%,31.799316%);fill-opacity:1;" d="M 81.316406 269.964844 C 81.316406 165.78125 165.789063 81.304688 269.988281 81.304688 C 374.191406 81.304688 458.648438 165.78125 458.648438 269.964844 C 458.648438 374.175781 374.191406 458.621094 269.988281 458.621094 C 165.789063 458.621094 81.316406 374.175781 81.316406 269.964844 "/>
<path style=" stroke:none;fill-rule:nonzero;fill:rgb(100%,100%,100%);fill-opacity:1;" d="M 399.003906 341.273438 C 373.992188 384.292969 327.441406 413.21875 274.097656 413.21875 C 194.328125 413.21875 129.675781 348.558594 129.675781 268.789063 C 129.675781 189.03125 194.328125 124.375 274.097656 124.375 C 328.214844 124.375 375.351563 154.148438 400.082031 198.199219 L 418.855469 179.859375 C 388.546875 130.644531 334.1875 97.804688 272.148438 97.804688 C 177.054688 97.804688 99.976563 174.890625 99.976563 269.984375 C 99.976563 365.070313 177.054688 442.152344 272.148438 442.152344 C 333.46875 442.152344 387.257813 410.074219 417.761719 361.808594 L 399.003906 341.273438 "/>
<g clip-path="url(#clip2)" clip-rule="nonzero">
<g clip-path="url(#clip3)" clip-rule="nonzero">
<path style=" stroke:none;fill-rule:nonzero;fill:rgb(100%,100%,100%);fill-opacity:1;" d="M 331.636719 174.902344 L 348.242188 155.195313 C 348.242188 155.195313 337.339844 146.898438 322.296875 141.183594 C 307.253906 135.484375 294.027344 133.664063 294.027344 133.664063 L 294.027344 159.867188 C 294.027344 159.867188 306.996094 162.453125 315.035156 165.574219 C 323.078125 168.6875 331.636719 174.902344 331.636719 174.902344 "/>
</g>
</g>
<g clip-path="url(#clip4)" clip-rule="nonzero">
<g clip-path="url(#clip5)" clip-rule="nonzero">
<path style=" stroke:none;fill-rule:nonzero;fill:rgb(100%,100%,100%);fill-opacity:1;" d="M 285.464844 131.589844 L 257.964844 131.589844 L 257.964844 184.5 L 285.464844 184.5 L 285.464844 131.589844 "/>
</g>
</g>
<g clip-path="url(#clip6)" clip-rule="nonzero">
<g clip-path="url(#clip7)" clip-rule="nonzero">
<path style=" stroke:none;fill-rule:nonzero;fill:rgb(100%,100%,100%);fill-opacity:1;" d="M 257.964844 406.957031 L 285.464844 406.957031 L 285.464844 223.601563 L 257.964844 223.601563 L 257.964844 406.957031 "/>
</g>
</g>
<g clip-path="url(#clip8)" clip-rule="nonzero">
<g clip-path="url(#clip9)" clip-rule="nonzero">
<path style=" stroke:none;fill-rule:nonzero;fill:rgb(100%,100%,100%);fill-opacity:1;" d="M 212.832031 224.960938 L 239.027344 254.539063 L 239.027344 215.890625 L 295.320313 215.890625 L 316.855469 190.472656 L 240.070313 190.472656 L 240.070313 163.753906 L 252.523438 158.039063 L 252.523438 133.664063 C 252.523438 133.664063 239.292969 134.953125 224.242188 141.183594 C 209.195313 147.402344 196.234375 156.230469 196.234375 156.230469 L 212.832031 173.863281 L 212.832031 224.960938 "/>
</g>
</g>
<g clip-path="url(#clip10)" clip-rule="nonzero">
<g clip-path="url(#clip11)" clip-rule="nonzero">
<path style=" stroke:none;fill-rule:nonzero;fill:rgb(100%,100%,100%);fill-opacity:1;" d="M 379.691406 182.96875 L 294.027344 278.257813 L 294.027344 316.980469 L 351.101563 254.539063 L 351.222656 381.285156 C 351.222656 381.285156 360.058594 375.125 365.910156 370.214844 C 371.75 365.300781 378.761719 356.714844 378.761719 356.714844 L 378.761719 222 L 394.746094 204.792969 L 379.691406 182.96875 "/>
</g>
</g>
<g clip-path="url(#clip12)" clip-rule="nonzero">
<g clip-path="url(#clip13)" clip-rule="nonzero">
<path style=" stroke:none;fill-rule:nonzero;fill:rgb(100%,100%,100%);fill-opacity:1;" d="M 151.839844 204.792969 L 167.828125 222 L 167.828125 356.714844 C 167.828125 356.714844 174.835938 365.300781 180.679688 370.214844 C 186.523438 375.125 195.367188 381.285156 195.367188 381.285156 L 195.484375 254.539063 L 252.5625 316.980469 L 252.5625 278.257813 L 166.898438 182.96875 L 151.839844 204.792969 "/>
</g>
</g>
<g clip-path="url(#clip14)" clip-rule="nonzero">
<g clip-path="url(#clip15)" clip-rule="nonzero">
<path style=" stroke:none;fill-rule:nonzero;fill:rgb(100%,100%,100%);fill-opacity:1;" d="M 212.683594 393.253906 C 212.683594 393.253906 217.257813 395.46875 224.875 398.652344 C 232.488281 401.855469 239.765625 402.101563 239.765625 402.101563 L 239.765625 315.277344 L 212.683594 285.773438 L 212.683594 393.253906 "/>
</g>
</g>
</g>
</svg>
