<?xml version="1.0" encoding="UTF-8"?>
<svg version="1.1" xmlns="http://www.w3.org/2000/svg" width="2048" height="1536">
<path d="M0 0 C0.721875 0.47888672 1.44375 0.95777344 2.1875 1.45117188 C19.51953827 13.02227697 36.08906394 25.54813443 52 39 C52.93368408 39.78503906 52.93368408 39.78503906 53.88623047 40.5859375 C67.42139283 51.97788189 80.22568228 64.03885933 92.73095703 76.5456543 C94.75664755 78.56914032 96.79025336 80.58444534 98.82421875 82.59960938 C105.28952222 89.03769891 111.50719062 95.47625515 117.14013672 102.66650391 C119.11990052 105.15043439 121.21854256 107.48118785 123.375 109.8125 C128.41933595 115.36389225 133.02137507 121.21389004 137.58496094 127.16113281 C138.93460267 128.91501507 140.29843869 130.65699081 141.6640625 132.3984375 C148.59018493 141.33509029 154.90988372 150.66560646 161.1875 160.0625 C161.81699051 161.00210571 161.81699051 161.00210571 162.459198 161.96069336 C172.42451686 176.86150331 181.46029664 192.24177203 190 208 C190.46277344 208.85029785 190.92554688 209.7005957 191.40234375 210.57666016 C234.86508005 290.8325462 256.28430194 381.00791992 233.9473877 644.57513428 C220.34489742 690.05187015 200.93274657 734.56673638 176 775 C175.53239258 775.75974121 175.06478516 776.51948242 174.58300781 777.30224609 C159.68534156 801.40661117 143.30369658 824.35910618 125 846 C124.47132324 846.62777344 123.94264648 847.25554688 123.39794922 847.90234375 C121.87393285 849.70957595 120.34482494 851.51230908 118.8125 853.3125 C118.38630371 853.81434814 117.96010742 854.31619629 117.52099609 854.83325195 C108.18430821 865.7052369 98.23173638 875.95474802 88.10253906 886.08276367 C85.99775343 888.18974891 83.90113426 890.30464329 81.8046875 892.41992188 C75.22663141 899.02476273 68.66477878 905.41083194 61.3137207 911.15991211 C58.834785 913.13139447 56.51206492 915.22461431 54.1875 917.375 C48.63610775 922.41933595 42.78610996 927.02137507 36.83886719 931.58496094 C35.08498493 932.93460267 33.34300919 934.29843869 31.6015625 935.6640625 C22.66490971 942.59018493 13.33439354 948.90988372 3.9375 955.1875 C2.99789429 955.81699051 2.99789429 955.81699051 2.03930664 956.459198 C-12.86150331 966.42451686 -28.24177203 975.46029664 -44 984 C-44.85029785 984.46277344 -45.7005957 984.92554688 -46.57666016 985.40234375 C-133.37628414 1032.40885448 -232.95333963 1054.56279571 -476.3125 1029.1875 C-530.6758961 1013.01914012 -582.70985212 989.38556232 -630 958 C-630.721875 957.52111328 -631.44375 957.04222656 -632.1875 956.54882812 C-649.51898785 944.9780905 -666.09211443 932.45476361 -682 919 C-682.62777344 918.47132324 -683.25554687 917.94264648 -683.90234375 917.39794922 C-685.70957595 915.87393285 -687.51230908 914.34482494 -689.3125 912.8125 C-689.81434814 912.38630371 -690.31619629 911.96010742 -690.83325195 911.52099609 C-701.7052369 902.18430821 -711.95474802 892.23173638 -722.08276367 882.10253906 C-724.18974891 879.99775343 -726.30464329 877.90113426 -728.41992188 875.8046875 C-735.02476273 869.22663141 -741.41083194 862.66477878 -747.15991211 855.3137207 C-749.13139447 852.834785 -751.22461431 850.51206492 -753.375 848.1875 C-758.41933595 842.63610775 -763.02137507 836.78610996 -767.58496094 830.83886719 C-768.93460267 829.08498493 -770.29843869 827.34300919 -771.6640625 825.6015625 C-778.59018493 816.66490971 -784.90988372 807.33439354 -791.1875 797.9375 C-791.60716034 797.31109619 -792.02682068 796.68469238 -792.459198 796.03930664 C-802.42451686 781.13849669 -811.46029664 765.75822797 -820 750 C-820.46277344 749.14970215 -820.92554688 748.2994043 -821.40234375 747.42333984 C-863.76060767 669.20691144 -885.17064733 581.66992173 -888 487 C-888.02707031 485.915979 -888.02707031 485.915979 -888.0546875 484.81005859 C-888.14438344 480.53716837 -888.09704623 476.27191842 -888 472 C-887.97317139 470.61796387 -887.97317139 470.61796387 -887.94580078 469.20800781 C-886.16378074 385.62216262 -866.97222245 304.74509417 -794 164 C-793.28166992 162.9171875 -793.28166992 162.9171875 -792.54882812 161.8125 C-780.9780905 144.48101215 -768.45476361 127.90788557 -755 112 C-754.47132324 111.37222656 -753.94264648 110.74445313 -753.39794922 110.09765625 C-751.87393285 108.29042405 -750.34482494 106.48769092 -748.8125 104.6875 C-748.38630371 104.18565186 -747.96010742 103.68380371 -747.52099609 103.16674805 C-738.18430821 92.2947631 -728.23173638 82.04525198 -718.10253906 71.91723633 C-715.99775343 69.81025109 -713.90113426 67.69535671 -711.8046875 65.58007812 C-705.22663141 58.97523727 -698.66477878 52.58916806 -691.3137207 46.84008789 C-688.834785 44.86860553 -686.51206492 42.77538569 -684.1875 40.625 C-678.63610775 35.58066405 -672.78610996 30.97862493 -666.83886719 26.41503906 C-665.08498493 25.06539733 -663.34300919 23.70156131 -661.6015625 22.3359375 C-652.66490971 15.40981507 -643.33439354 9.09011628 -633.9375 2.8125 C-633.31109619 2.39283966 -632.68469238 1.97317932 -632.03930664 1.540802 C-617.13849669 -8.42451686 -601.75822797 -17.46029664 -586 -26 C-585.14970215 -26.46277344 -584.2994043 -26.92554688 -583.42333984 -27.40234375 C-496.62371586 -74.40885448 -397.04666037 -96.56279571 0 0 Z " fill="#FBE91B" transform="translate(1339,289)"/>
<path d="M0 0 C183.44859813 0 183.44859813 0 225 39 C225.88558594 39.77150391 225.88558594 39.77150391 226.7890625 40.55859375 C245.87600608 57.97203754 256.70224497 86.53567233 258.16845703 111.91601562 C259.41338303 145.31545298 254.61433735 182.44475821 231 208 C228.38875068 210.72770298 225.73472518 213.39619251 223 216 C223.4846875 216.3403125 223.969375 216.680625 224.46875 217.03125 C243.81307951 231.01868826 252.62913219 252.12438695 256.54614258 275.22021484 C257.91899989 284.41217701 258.3422071 293.40772878 258.31567383 302.68847656 C258.31250203 304.99852294 258.33613554 307.30729675 258.36132812 309.6171875 C258.40328737 319.45915033 257.36376705 328.43261457 255 338 C254.80656006 338.79519043 254.61312012 339.59038086 254.41381836 340.40966797 C246.49271297 370.80555993 226.6056423 394.4697415 200.10253906 410.76806641 C139.59520821 446.2209219 68.69602424 430 0 430 C0 288.1 0 146.2 0 0 Z " fill="#000000" transform="translate(1191,547)"/>
<path d="M0 0 C179.65827338 0 179.65827338 0 215 30 C215.85464844 30.71671875 216.70929688 31.4334375 217.58984375 32.171875 C240.79285497 52.33597104 255.19434668 79.22387641 258 110 C259.78755049 142.81073991 254.8250266 179.68255137 233.06640625 205.69921875 C229.85119426 209.27910507 226.48422501 212.68257299 223 216 C223.49628906 216.35191406 223.99257813 216.70382812 224.50390625 217.06640625 C245.85797601 232.58558788 253.38597838 256.20929054 257.54638672 281.29443359 C258.0371614 285.3035714 258.19645283 289.26014811 258.23828125 293.29296875 C258.24816574 294.07264511 258.25805023 294.85232147 258.26823425 295.65562439 C258.60785344 329.3805848 253.58544912 361.21918573 229.359375 386.6328125 C228.58078125 387.41398437 227.8021875 388.19515625 227 389 C226.16339844 389.84046875 225.32679688 390.6809375 224.46484375 391.546875 C223.65144531 392.35640625 222.83804688 393.1659375 222 394 C221.32582031 394.68320312 220.65164063 395.36640625 219.95703125 396.0703125 C164.18189646 449.50878409 61.10622846 430 0 430 C0 288.1 0 146.2 0 0 Z " fill="#000000" transform="translate(632,547)"/>
<path d="M0 0 C0.721875 0.47888672 1.44375 0.95777344 2.1875 1.45117188 C19.51953827 13.02227697 36.08906394 25.54813443 52 39 C52.93368408 39.78503906 52.93368408 39.78503906 53.88623047 40.5859375 C67.42139283 51.97788189 80.22568228 64.03885933 92.73095703 76.5456543 C94.75664755 78.56914032 96.79025336 80.58444534 98.82421875 82.59960938 C105.28952222 89.03769891 111.50719062 95.47625515 117.14013672 102.66650391 C119.11990052 105.15043439 121.21854256 107.48118785 123.375 109.8125 C128.41933595 115.36389225 133.02137507 121.21389004 137.58496094 127.16113281 C138.93460267 128.91501507 140.29843869 130.65699081 141.6640625 132.3984375 C148.59018493 141.33509029 154.90988372 150.66560646 161.1875 160.0625 C161.81699051 161.00210571 161.81699051 161.00210571 162.459198 161.96069336 C172.42451686 176.86150331 181.46029664 192.24177203 190 208 C190.46277344 208.85029785 190.92554688 209.7005957 191.40234375 210.57666016 C234.86508005 290.8325462 256.28430194 381.00791992 233.9473877 644.57513428 C220.34489742 690.05187015 200.93274657 734.56673638 176 775 C175.53239258 775.75974121 175.06478516 776.51948242 174.58300781 777.30224609 C159.68534156 801.40661117 143.30369658 824.35910618 125 846 C124.47132324 846.62777344 123.94264648 847.25554688 123.39794922 847.90234375 C121.87393285 849.70957595 120.34482494 851.51230908 118.8125 853.3125 C118.38630371 853.81434814 117.96010742 854.31619629 117.52099609 854.83325195 C108.18430821 865.7052369 98.23173638 875.95474802 88.10253906 886.08276367 C85.99775343 888.18974891 83.90113426 890.30464329 81.8046875 892.41992188 C75.22663141 899.02476273 68.66477878 905.41083194 61.3137207 911.15991211 C58.834785 913.13139447 56.51206492 915.22461431 54.1875 917.375 C48.63610775 922.41933595 42.78610996 927.02137507 36.83886719 931.58496094 C35.08498493 932.93460267 33.34300919 934.29843869 31.6015625 935.6640625 C22.66490971 942.59018493 13.33439354 948.90988372 3.9375 955.1875 C2.99789429 955.81699051 2.99789429 955.81699051 2.03930664 956.459198 C-12.86150331 966.42451686 -28.24177203 975.46029664 -44 984 C-44.85029785 984.46277344 -45.7005957 984.92554688 -46.57666016 985.40234375 C-133.37628414 1032.40885448 -232.95333963 1054.56279571 -476.3125 1029.1875 C-530.6758961 1013.01914012 -582.70985212 989.38556232 -630 958 C-630.721875 957.52111328 -631.44375 957.04222656 -632.1875 956.54882812 C-649.51898785 944.9780905 -666.09211443 932.45476361 -682 919 C-682.62777344 918.47132324 -683.25554687 917.94264648 -683.90234375 917.39794922 C-685.70957595 915.87393285 -687.51230908 914.34482494 -689.3125 912.8125 C-689.81434814 912.38630371 -690.31619629 911.96010742 -690.83325195 911.52099609 C-701.7052369 902.18430821 -711.95474802 892.23173638 -722.08276367 882.10253906 C-724.18974891 879.99775343 -726.30464329 877.90113426 -728.41992188 875.8046875 C-735.02476273 869.22663141 -741.41083194 862.66477878 -747.15991211 855.3137207 C-749.13139447 852.834785 -751.22461431 850.51206492 -753.375 848.1875 C-758.41933595 842.63610775 -763.02137507 836.78610996 -767.58496094 830.83886719 C-768.93460267 829.08498493 -770.29843869 827.34300919 -771.6640625 825.6015625 C-778.59018493 816.66490971 -784.90988372 807.33439354 -791.1875 797.9375 C-791.60716034 797.31109619 -792.02682068 796.68469238 -792.459198 796.03930664 C-802.42451686 781.13849669 -811.46029664 765.75822797 -820 750 C-820.46277344 749.14970215 -820.92554688 748.2994043 -821.40234375 747.42333984 C-863.76060767 669.20691144 -885.17064733 581.66992173 -888 487 C-888.02707031 485.915979 -888.02707031 485.915979 -888.0546875 484.81005859 C-888.14438344 480.53716837 -888.09704623 476.27191842 -888 472 C-887.97317139 470.61796387 -887.97317139 470.61796387 -887.94580078 469.20800781 C-886.16378074 385.62216262 -866.97222245 304.74509417 -794 164 C-793.28166992 162.9171875 -793.28166992 162.9171875 -792.54882812 161.8125 C-780.9780905 144.48101215 -768.45476361 127.90788557 -755 112 C-754.47132324 111.37222656 -753.94264648 110.74445313 -753.39794922 110.09765625 C-751.87393285 108.29042405 -750.34482494 106.48769092 -748.8125 104.6875 C-748.38630371 104.18565186 -747.96010742 103.68380371 -747.52099609 103.16674805 C-738.18430821 92.2947631 -728.23173638 82.04525198 -718.10253906 71.91723633 C-715.99775343 69.81025109 -713.90113426 67.69535671 -711.8046875 65.58007812 C-705.22663141 58.97523727 -698.66477878 52.58916806 -691.3137207 46.84008789 C-688.834785 44.86860553 -686.51206492 42.77538569 -684.1875 40.625 C-678.63610775 35.58066405 -672.78610996 30.97862493 -666.83886719 26.41503906 C-665.08498493 25.06539733 -663.34300919 23.70156131 -661.6015625 22.3359375 C-652.66490971 15.40981507 -643.33439354 9.09011628 -633.9375 2.8125 C-633.31109619 2.39283966 -632.68469238 1.97317932 -632.03930664 1.540802 C-617.13849669 -8.42451686 -601.75822797 -17.46029664 -586 -26 C-585.14970215 -26.46277344 -584.2994043 -26.92554688 -583.42333984 -27.40234375 C-496.62371586 -74.40885448 -397.04666037 -96.56279571 0 0 Z M-391 -62 C-392.27133789 -61.81276367 -393.54267578 -61.62552734 -394.85253906 -61.43261719 C-403.28083034 -60.17196603 -411.6445836 -58.67445693 -420 -57 C-420.96456116 -56.80697296 -420.96456116 -56.80697296 -421.9486084 -56.61004639 C-440.2230839 -52.93681569 -458.22278085 -48.65166704 -476 -43 C-477.07024414 -42.66242676 -478.14048828 -42.32485352 -479.24316406 -41.97705078 C-542.63430977 -21.83897963 -602.01501167 9.45540461 -654 51 C-654.56219238 51.44585449 -655.12438477 51.89170898 -655.70361328 52.35107422 C-658.84683405 54.84968719 -661.93416661 57.40726041 -665 60 C-665.7727124 60.64751221 -665.7727124 60.64751221 -666.56103516 61.30810547 C-680.33347837 72.85931621 -693.27441191 85.18829642 -706 97.875 C-706.49490936 98.36723053 -706.98981873 98.85946106 -707.49972534 99.36660767 C-713.22038791 105.06373575 -718.77425832 110.84222563 -724 117 C-724.96128743 118.10629682 -725.92349501 119.21179491 -726.88671875 120.31640625 C-753.51785665 151.10425615 -776.27012465 184.42133168 -796 220 C-796.43989258 220.78729492 -796.87978516 221.57458984 -797.33300781 222.38574219 C-816.60788629 257.04930907 -831.46117279 294.94106556 -841.28417969 333.32397461 C-842.10181888 336.38064009 -843.01125514 339.40491998 -843.9140625 342.4375 C-846.43270644 351.2124555 -848.2325184 360.11054284 -850 369.0625 C-850.17364075 369.93550751 -850.34728149 370.80851501 -850.52618408 371.70797729 C-852.75415459 382.95578356 -854.8042015 394.20169985 -856.375 405.5625 C-856.51808594 406.59705322 -856.66117188 407.63160645 -856.80859375 408.69750977 C-857.25111191 412.12783108 -857.63147994 415.56091816 -858 419 C-858.12810059 420.10344757 -858.12810059 420.10344757 -858.25878906 421.22918701 C-860.26709575 438.83424824 -860.31046881 456.39547829 -860.26074219 474.08789062 C-860.24934839 478.17867028 -860.25613172 482.26918976 -860.2676115 486.35996056 C-860.30977771 503.99736161 -860.1131134 521.46262657 -858 539 C-857.9084967 539.77484741 -857.81699341 540.54969482 -857.72271729 541.34802246 C-857.11827717 546.36843095 -856.42442099 551.3725056 -855.6875 556.375 C-855.58084015 557.11159851 -855.4741803 557.84819702 -855.36428833 558.6071167 C-853.39302423 572.17521789 -850.93750959 585.60596485 -848 599 C-847.83677246 599.76828125 -847.67354492 600.5365625 -847.50537109 601.328125 C-844.78268495 614.1164122 -840.97892406 626.55310935 -837 639 C-836.68325317 639.99531738 -836.68325317 639.99531738 -836.36010742 641.01074219 C-826.9975721 670.40971303 -815.78567128 698.35274024 -802 726 C-801.51418457 726.97565918 -801.02836914 727.95131836 -800.52783203 728.95654297 C-782.55159894 764.8069056 -759.89213645 798.38335923 -734 829 C-733.35248779 829.7727124 -733.35248779 829.7727124 -732.69189453 830.56103516 C-721.14068379 844.33347837 -708.81170358 857.27441191 -696.125 870 C-695.63276947 870.49490936 -695.14053894 870.98981873 -694.63339233 871.49972534 C-688.93626425 877.22038791 -683.15777437 882.77425832 -677 888 C-675.89370318 888.96128743 -674.78820509 889.92349501 -673.68359375 890.88671875 C-612.5121239 943.79934027 -539.30819694 985.15669485 -460.67651367 1005.28417969 C-457.61728444 1006.10235538 -454.59002481 1007.01135015 -451.5546875 1007.9140625 C-442.82143347 1010.42006005 -433.97055014 1012.23342152 -425.0625 1014 C-424.19337982 1014.17364075 -423.32425964 1014.34728149 -422.42880249 1014.52618408 C-407.30702216 1017.53074919 -392.18713755 1019.96444576 -376.85058594 1021.58984375 C-374.13918104 1021.87865685 -371.43990751 1022.19435842 -368.73535156 1022.53515625 C-352.5542175 1024.45148343 -336.33029215 1024.30621897 -320.06298828 1024.26074219 C-315.95647311 1024.24936736 -311.85021771 1024.2561115 -307.74371147 1024.26761913 C-290.066143 1024.30972209 -272.5811649 1024.07428039 -255 1022 C-253.9598172 1021.88304779 -253.9598172 1021.88304779 -252.89862061 1021.76373291 C-248.79782083 1021.30054036 -244.7110064 1020.76592434 -240.625 1020.1875 C-239.41440918 1020.01790771 -238.20381836 1019.84831543 -236.95654297 1019.67358398 C-225.8740788 1018.07020984 -214.92156505 1015.97835414 -203.97460938 1013.63232422 C-201.03365904 1013.00715503 -198.08825509 1012.40918986 -195.140625 1011.81640625 C-181.47326313 1009.02406264 -168.26472581 1005.2971334 -155 1001 C-153.74864258 1000.60006836 -152.49728516 1000.20013672 -151.20800781 999.78808594 C-121.7547212 990.36568747 -93.64027289 978.85280816 -66 965 C-65.02804687 964.5153125 -64.05609375 964.030625 -63.0546875 963.53125 C-27.88053151 945.89406637 4.84625453 923.21401804 35 898 C35.59087402 897.50822266 36.18174805 897.01644531 36.79052734 896.50976562 C50.52896562 885.04128943 63.38934948 872.68922468 76.0625 860.0625 C76.94301025 859.1866626 77.82352051 858.3108252 78.73071289 857.40844727 C83.15798717 852.97017144 87.44265146 848.46976517 91.52709961 843.71362305 C93.384061 841.55317021 95.31719593 839.46760283 97.25 837.375 C102.29548053 831.77647354 106.89696798 825.88237148 111.49902344 819.92041016 C112.98902375 818.01404345 114.50906809 816.13608332 116.0390625 814.26171875 C139.33851837 785.44313116 158.40511157 753.04191287 175 720 C175.4650293 719.07928711 175.93005859 718.15857422 176.40917969 717.20996094 C189.98556347 690.16170017 199.82858269 661.77606623 209 633 C209.32871094 631.97326172 209.65742187 630.94652344 209.99609375 629.88867188 C217.60242605 605.79026884 222.13917063 580.56760671 225.63427734 555.58203125 C225.94101976 553.41640524 226.27403981 551.25452351 226.61328125 549.09375 C230.19034929 526.15682517 230.40307257 503.1508374 230.375 480 C230.3749081 479.1821616 230.37481621 478.3643232 230.37472153 477.52170181 C230.37108474 452.47665977 229.83764818 427.79759291 226 403 C225.71914551 401.09299316 225.71914551 401.09299316 225.43261719 399.14746094 C224.17196603 390.71916966 222.67445693 382.3554164 221 374 C220.87131531 373.35695923 220.74263062 372.71391846 220.61004639 372.0513916 C216.93593784 353.77254875 212.63456656 335.78577131 207 318 C206.62423828 316.78860352 206.24847656 315.57720703 205.86132812 314.32910156 C193.63600808 274.99924191 177.04956493 235.7608946 155.12402344 200.79492188 C153.94342485 198.90965671 152.78708329 197.01085945 151.6328125 195.109375 C137.46238797 171.91752194 121.43361736 149.83943223 104 129 C103.50290527 128.40380859 103.00581055 127.80761719 102.49365234 127.19335938 C91.03044392 113.49038733 78.73335197 100.64699634 66.125 88 C65.63276947 87.50509064 65.14053894 87.01018127 64.63339233 86.50027466 C58.93626425 80.77961209 53.15777437 75.22574168 47 70 C45.89370318 69.03871257 44.78820509 68.07650499 43.68359375 67.11328125 C7.22695587 35.57795584 -32.95649013 9.60802778 -76 -12 C-77.38203613 -12.69802734 -77.38203613 -12.69802734 -78.79199219 -13.41015625 C-128.37105543 -38.30185529 -183.41056142 -53.91937195 -238.1875 -61.8125 C-238.86842712 -61.91177795 -239.54935425 -62.01105591 -240.25091553 -62.11334229 C-245.15884752 -62.82009522 -250.07383751 -63.43496762 -255 -64 C-255.78989319 -64.09289307 -256.57978638 -64.18578613 -257.39361572 -64.28149414 C-276.22175289 -66.42102393 -295.07895288 -66.39794355 -314 -66.375 C-314.8178384 -66.3749081 -315.6356768 -66.37481621 -316.47829819 -66.37472153 C-341.52334023 -66.37108474 -366.20240709 -65.83764818 -391 -62 Z " fill="#FAE81B" transform="translate(1339,289)"/>
<path d="M0 0 C2.44515197 0.00060705 4.89028751 -0.00191704 7.33543777 -0.00460434 C25.45757881 -0.01164654 43.4533017 0.23370667 61.47383499 2.37561417 C62.2501326 2.46693619 63.02643021 2.55825821 63.82625198 2.65234756 C68.8451678 3.25687135 73.84779926 3.95140805 78.84883499 4.68811417 C79.95373276 4.84810394 79.95373276 4.84810394 81.08095169 5.01132584 C94.64905288 6.98258994 108.07979984 9.43810457 121.47383499 12.37561417 C122.62625687 12.62045547 122.62625687 12.62045547 123.80195999 12.87024307 C136.58924424 15.59271569 149.02731615 19.39875636 161.47383499 23.37561417 C162.09121536 23.57217606 162.70859573 23.76873795 163.3446846 23.97125626 C193.45679941 33.56791213 222.22031101 45.21545557 250.47383499 59.37561417 C251.44578812 59.86030167 252.41774124 60.34498917 253.41914749 60.84436417 C288.59039141 78.48008761 321.32759637 101.1562136 351.47383499 126.37561417 C352.0700264 126.87270889 352.6662178 127.36980362 353.28047562 127.88196182 C366.98344766 139.34517025 379.82683866 151.6422622 392.47383499 164.25061417 C392.96874435 164.7428447 393.46365372 165.23507523 393.97356033 165.74222183 C399.69422291 171.43934992 405.24809332 177.21783979 410.47383499 183.37561417 C411.43512242 184.48191099 412.39733001 185.58740908 413.36055374 186.69202042 C464.91522758 246.29216883 502.13981342 315.26336911 525.47383499 390.37561417 C525.95239944 391.911371 525.95239944 391.911371 526.44063187 393.47815323 C530.26224085 405.99055064 532.94215147 418.77611481 535.66133499 431.56311417 C535.91481705 432.75115646 535.91481705 432.75115646 536.17341995 433.96319962 C538.50937 444.97819053 540.4992613 456.01478787 542.14519119 467.15402603 C542.35462979 468.56980298 542.56742732 469.98508999 542.78465652 471.39969254 C546.4817009 495.48882337 546.85686252 519.5846479 546.84944916 543.90177917 C546.84884211 546.34693114 546.8513662 548.79206668 546.8540535 551.23721695 C546.86109569 569.35935798 546.61574249 587.35508087 544.47383499 605.37561417 C544.38251297 606.15191177 544.29119095 606.92820938 544.19710159 607.72803116 C543.59257781 612.74694698 542.89804111 617.74957844 542.16133499 622.75061417 C542.00134521 623.85551193 542.00134521 623.85551193 541.83812332 624.98273087 C539.86685922 638.55083205 537.41134458 651.98157901 534.47383499 665.37561417 C534.22899368 666.52803604 534.22899368 666.52803604 533.97920609 667.70373917 C531.25673347 680.49102342 527.45069279 692.92909532 523.47383499 705.37561417 C523.2772731 705.99299454 523.08071121 706.61037491 522.8781929 707.24646378 C513.28167195 737.35815523 501.63489484 766.12244667 487.47383499 794.37561417 C487.02685257 795.27215714 486.57987015 796.1687001 486.1193428 797.09241104 C468.44174914 832.33544868 445.73646033 865.16373865 420.47383499 895.37561417 C419.98205765 895.96648819 419.4902803 896.55736221 418.98360062 897.16614151 C407.51512442 910.90457978 395.16305967 923.76496364 382.53633499 936.43811417 C381.66049759 937.31862442 380.78466019 938.19913467 379.88228226 939.10632706 C375.44400644 943.53360134 370.94360016 947.81826563 366.18745804 951.90271378 C364.0270052 953.75967516 361.94143782 955.6928101 359.84883499 957.62561417 C354.25030854 962.6710947 348.35620647 967.27258214 342.39424515 971.8746376 C340.48787845 973.36463792 338.60991832 974.88468226 336.73555374 976.41467667 C307.28624933 1000.22182462 274.21628151 1019.4129692 240.47383499 1036.37561417 C239.11572708 1037.06566544 239.11572708 1037.06566544 237.73018265 1037.76965714 C188.2194468 1062.81425652 132.80954871 1078.18875637 78.12031937 1085.99377823 C75.92838348 1086.31003171 73.73966881 1086.6485208 71.55195999 1086.99280167 C48.61791367 1090.55910074 25.62064969 1090.77868186 2.47383499 1090.75061417 C1.65599659 1090.75052227 0.83815819 1090.75043037 -0.0044632 1090.75033569 C-25.04950524 1090.7466989 -49.7285721 1090.21326235 -74.52616501 1086.37561417 C-76.43317184 1086.09475967 -76.43317184 1086.09475967 -78.37870407 1085.80823135 C-104.66220485 1081.87690949 -131.17879807 1076.41311257 -156.52616501 1068.37561417 C-158.20694138 1067.84411758 -158.20694138 1067.84411758 -159.92167282 1067.3018837 C-177.42114563 1061.71907288 -194.60546525 1055.5472622 -211.52616501 1048.37561417 C-212.36163864 1048.02208878 -213.19711227 1047.66856339 -214.05790329 1047.3043251 C-258.34068163 1028.37085756 -299.90439265 1003.4416267 -337.52616501 973.37561417 C-338.08835739 972.92975967 -338.65054977 972.48390518 -339.22977829 972.02453995 C-342.37299906 969.52592697 -345.46033161 966.96835375 -348.52616501 964.37561417 C-349.04130661 963.94393936 -349.55644821 963.51226456 -350.08720016 963.0675087 C-363.85964338 951.51629796 -376.80057692 939.18731774 -389.52616501 926.50061417 C-390.02107437 926.00838364 -390.51598373 925.51615311 -391.02589035 925.0090065 C-396.74655292 919.31187841 -402.30042333 913.53338854 -407.52616501 907.37561417 C-408.48745244 906.26931735 -409.44966002 905.16381925 -410.41288376 904.05920792 C-441.99443641 867.54825948 -467.8807302 827.49363939 -489.52616501 784.37561417 C-490.22419235 782.99357803 -490.22419235 782.99357803 -490.93632126 781.58362198 C-515.76465949 732.13076024 -530.96233241 677.62742619 -538.98075485 623.07043839 C-539.32366778 620.74741054 -539.67668363 618.42582889 -540.04423141 616.1065712 C-543.41706104 594.191389 -543.84901775 572.40473281 -543.7869072 550.28772354 C-543.77551341 546.19694801 -543.78229476 542.10643268 -543.79377937 538.01566601 C-543.83593645 520.37333055 -543.60578894 502.9206296 -541.52616501 485.37561417 C-541.44173141 484.63140213 -541.35729782 483.88719009 -541.27030563 483.12042618 C-540.72312176 478.33970332 -540.09035533 473.57530398 -539.40116501 468.81311417 C-539.29834213 468.09513657 -539.19551926 467.37715897 -539.08958054 466.63742447 C-535.38361644 441.05932569 -530.11186179 415.64309647 -522.33768845 390.98254776 C-521.52706918 388.37851873 -520.75844585 385.76559139 -520.00272751 383.14514542 C-509.34320979 346.27819581 -493.36523964 310.74517007 -474.52616501 277.37561417 C-474.03164841 276.49566788 -473.53713181 275.61572159 -473.02762985 274.70911026 C-459.44056517 250.68347475 -443.64587805 228.00749963 -426.52616501 206.37561417 C-426.07595993 205.80617081 -425.62575485 205.23672745 -425.1619072 204.65002823 C-422.66805987 201.51404046 -420.11332377 198.43484841 -417.52616501 195.37561417 C-417.0944902 194.86047256 -416.6628154 194.34533096 -416.21805954 193.81457901 C-404.6668488 180.0421358 -392.33786858 167.10120226 -379.65116501 154.37561417 C-379.15893448 153.8807048 -378.66670395 153.38579544 -378.15955734 152.87588882 C-372.46242925 147.15522625 -366.68393938 141.60135584 -360.52616501 136.37561417 C-359.41986819 135.41432674 -358.3143701 134.45211915 -357.20975876 133.48889542 C-294.57788195 79.31303859 -221.50746506 40.49801918 -109.90116501 10.56311417 C-109.21721664 10.4215892 -108.53326828 10.28006424 -107.82859421 10.13425064 C-96.78058067 7.86879188 -85.67823821 6.0463779 -74.52616501 4.37561417 C-73.8546843 4.27213669 -73.18320358 4.16865921 -72.49137497 4.06204605 C-48.40590701 0.36709038 -24.31319085 -0.00741216 0 0 Z M-49.52616501 29.37561417 C-50.8807766 29.51211282 -52.23543366 29.64816081 -53.59012985 29.78381729 C-91.55067616 33.66107658 -129.47442363 41.82779969 -165.52616501 54.37561417 C-166.81514694 54.81502335 -166.81514694 54.81502335 -168.13016891 55.26330948 C-191.28644504 63.20234009 -213.64083691 73.46500686 -235.52616501 84.37561417 C-236.37227341 84.79665421 -237.21838181 85.21769424 -238.09012985 85.65149307 C-271.28144645 102.30415808 -302.58720532 123.65370269 -330.67069626 147.92248917 C-333.51390054 150.3650778 -336.41499124 152.71779333 -339.33866501 155.06311417 C-343.364959 158.33666624 -347.047011 161.78375974 -350.65897751 165.50452042 C-352.40382918 167.25302241 -354.20131405 168.84642119 -356.08866501 170.43811417 C-364.92030659 178.04313886 -373.34666723 186.5302306 -380.86600876 195.43420792 C-382.98318963 197.91006413 -385.1939833 200.29222685 -387.40116501 202.68811417 C-392.31810831 208.09232212 -396.9870519 213.65223996 -401.52616501 219.37561417 C-402.04195114 220.02417374 -402.55773727 220.67273331 -403.08915329 221.3409462 C-424.74092065 248.64480645 -443.19390313 277.61901498 -459.52616501 308.37561417 C-459.98249313 309.22945694 -460.43882126 310.08329971 -460.90897751 310.96301651 C-482.00648453 350.72904126 -495.73787553 393.58472456 -505.52616501 437.37561417 C-505.86551071 438.84127823 -505.86551071 438.84127823 -506.21171188 440.33655167 C-526.11528373 526.38431684 -519.44721687 622.06013057 -471.52616501 757.37561417 C-470.73822556 759.08950333 -470.73822556 759.08950333 -469.93436813 760.83801651 C-456.99827179 788.75175765 -442.04712643 815.0899299 -424.52616501 840.37561417 C-423.99587692 841.14276749 -423.46558884 841.90992081 -422.91923141 842.7003212 C-414.59261447 854.6909969 -405.68425211 866.15692623 -396.19022751 877.23889542 C-393.6802077 880.17509378 -391.25687486 883.17573936 -388.83866501 886.18811417 C-385.56511294 890.21440816 -382.11801944 893.89646016 -378.39725876 897.50842667 C-376.64875677 899.25327834 -375.05535799 901.0507632 -373.46366501 902.93811417 C-365.85864031 911.76975575 -357.37154857 920.19611638 -348.46757126 927.71545792 C-345.99171504 929.83263879 -343.60955233 932.04343246 -341.21366501 934.25061417 C-335.80945706 939.16755747 -330.24953921 943.83650106 -324.52616501 948.37561417 C-323.87760544 948.8914003 -323.22904587 949.40718643 -322.56083298 949.93860245 C-262.96421378 997.19829841 -193.22952018 1032.76432548 -118.85331345 1049.61975479 C-115.53256404 1050.37416044 -112.22124117 1051.16301309 -108.90897751 1051.95373917 C-89.31207166 1056.51096029 -69.50614417 1059.16952004 -49.52616501 1061.37561417 C-48.31057907 1061.5098378 -47.09499313 1061.64406143 -45.84257126 1061.78235245 C9.1561507 1067.48598304 65.65425164 1062.49502568 119.47383499 1050.37561417 C120.47318069 1050.15244522 121.4725264 1049.92927628 122.5021553 1049.69934464 C153.61495959 1042.58601045 184.50728653 1031.73718207 213.47383499 1018.37561417 C214.61642776 1017.8503212 215.75902054 1017.32502823 216.93623734 1016.78381729 C244.84997847 1003.84772095 271.18815073 988.89657558 296.47383499 971.37561417 C297.24098831 970.84532608 298.00814163 970.31503799 298.79854202 969.76868057 C310.78921773 961.44206363 322.25514706 952.53370127 333.33711624 943.03967667 C336.27331461 940.52965686 339.27396018 938.10632401 342.28633499 935.68811417 C346.31262898 932.4145621 349.99468098 928.96746859 353.60664749 925.24670792 C355.35149916 923.49820593 357.14898403 921.90480715 359.03633499 920.31311417 C367.86797657 912.70808947 376.29433721 904.22099773 383.81367874 895.31702042 C385.93085961 892.8411642 388.14165328 890.45900148 390.34883499 888.06311417 C395.26602052 882.65863998 399.93108578 877.09636142 404.47383499 871.37561417 C404.97898636 870.74300674 405.48413773 870.11039932 406.00459671 869.45862198 C451.75340743 812.01919936 486.64858913 744.59538859 503.83906937 672.9683876 C504.5648077 670.00402564 505.34136989 667.05453556 506.11445999 664.10217667 C525.76294142 586.97568286 525.44091303 500.5247446 505.29561234 423.54211807 C504.53263197 420.60217292 503.81682655 417.65565859 503.11836624 414.69983292 C495.19827461 381.83057199 483.50645778 348.55930048 467.66719437 318.65637589 C466.20389848 315.8597085 464.78535312 313.04171464 463.36445999 310.22327042 C446.60949754 277.1690691 426.45285903 245.69897293 402.47383499 217.37561417 C401.60479644 216.33310279 400.73633651 215.29010888 399.86836624 214.24670792 C394.43521109 207.74102881 388.84270271 201.41421811 383.07930374 195.19983292 C380.7380879 192.66205323 378.44590508 190.08923055 376.16133499 187.50061417 C368.44268848 178.90737281 360.27036917 170.53975375 351.45039749 163.07092667 C348.96523305 160.93938246 346.56943353 158.71877817 344.16133499 156.50061417 C338.7568608 151.58342864 333.19458224 146.91836338 327.47383499 142.37561417 C326.84122757 141.8704628 326.20862015 141.36531143 325.5568428 140.84485245 C271.82443632 98.04857105 211.14957744 67.03359866 145.47383499 47.37561417 C144.38651077 47.04867569 143.29918655 46.72173721 142.17891312 46.38489151 C112.97555992 37.73856786 82.73392302 32.53551716 52.47383499 29.37561417 C50.8319722 29.19989883 50.8319722 29.19989883 49.15694046 29.0206337 C16.69170682 25.70564322 -17.08868693 25.9003276 -49.52616501 29.37561417 Z " fill="#010100" transform="translate(1022.5261650085449,222.62438583374023)"/>
<path d="M0 0 C28.38 0 56.76 0 86 0 C93.72724583 26.49341428 93.72724583 26.49341428 96.625 37.0625 C98.83176216 45.0334611 101.21127754 52.88304553 103.89453125 60.70703125 C106.11770992 67.32943273 107.91902522 74.07643664 109.77392578 80.80908203 C112.91394208 92.19814173 116.0611536 103.52944789 119.89453125 114.70703125 C122.11770992 121.32943273 123.91902522 128.07643664 125.77392578 134.80908203 C128.91394208 146.19814173 132.0611536 157.52944789 135.89453125 168.70703125 C138.11770992 175.32943273 139.91902522 182.07643664 141.77392578 188.80908203 C144.91394208 200.19814173 148.0611536 211.52944789 151.89453125 222.70703125 C154.11770992 229.32943273 155.91902522 236.07643664 157.77392578 242.80908203 C162.52185352 260.0798459 162.52185352 260.0798459 168.0546875 277.109375 C168.91373607 279.73621773 169.52658521 282.28038311 170 285 C171.99109469 282.01335796 172.74382388 279.8519586 173.69921875 276.42578125 C174.01761719 275.29591797 174.33601563 274.16605469 174.6640625 273.00195312 C175.00179688 271.78443359 175.33953125 270.56691406 175.6875 269.3125 C176.22708876 267.39450722 176.76668682 265.47651687 177.30728149 263.55880737 C177.67408945 262.25699956 178.04027559 260.95501639 178.40585327 259.65286255 C180.06231255 253.75620894 181.77413093 247.87663656 183.5 242 C186.04279149 233.32442275 188.53036537 224.63416307 191 215.9375 C193.42890904 207.38648113 195.93505069 198.86704047 198.5625 190.375 C201.42703105 181.11217704 203.96773514 171.78250563 206.44555664 162.40966797 C208.14015864 156.04837816 209.95978775 149.75859913 212 143.5 C214.74663601 135.06704062 217.05090423 126.54048525 219.32421875 117.96923828 C222.08840865 107.57776341 225.08341722 97.2620092 228.12939453 86.95019531 C229.57461648 82.05281392 231.0067467 77.15162484 232.4375 72.25 C232.72367188 71.27015137 233.00984375 70.29030273 233.3046875 69.28076172 C235.56447111 61.52844852 237.78627895 53.765576 240 46 C242.59309995 36.9134764 245.18751388 27.82737135 247.8125 18.75 C248.09029297 17.780625 248.36808594 16.81125 248.65429688 15.8125 C248.91919922 14.89984375 249.18410156 13.9871875 249.45703125 13.046875 C249.68366455 12.26151367 249.91029785 11.47615234 250.14379883 10.66699219 C251.29950055 7.06708183 252.67244684 3.54014176 254 0 C282.05 0 310.1 0 339 0 C335.5196115 11.60129499 332.04088305 23.18096826 328.35546875 34.71484375 C327.93702531 36.0292057 327.5187618 37.34362494 327.10066223 38.65809631 C326.01560865 42.06828052 324.92880149 45.47790263 323.84136963 48.8873291 C321.90644995 54.9541593 319.9737045 61.02168079 318.04296875 67.08984375 C317.83071529 67.75678127 317.61846184 68.4237188 317.39977646 69.11086655 C314.01147065 79.76239413 310.68475689 90.43211396 307.38261414 101.11070251 C304.64550564 109.9500826 301.86626614 118.77534741 299.0625 127.59375 C298.85479288 128.24708879 298.64708576 128.90042759 298.43308449 129.57356453 C296.7452886 134.88114494 295.05500514 140.18793246 293.36462402 145.49468994 C291.88775674 150.13150823 290.41186787 154.76863633 288.9375 159.40625 C288.62584396 160.38648384 288.62584396 160.38648384 288.30789185 161.38652039 C285.33373948 170.74598723 282.40169531 180.11776658 279.5 189.5 C276.39362755 199.54402887 273.24799256 209.5746031 270.0625 219.59375 C269.75096481 220.57368172 269.75096481 220.57368172 269.43313599 221.57341003 C267.74532301 226.88104196 266.05502162 232.18788075 264.36462402 237.49468994 C262.88775674 242.13150823 261.41186787 246.76863633 259.9375 251.40625 C259.62584396 252.38648384 259.62584396 252.38648384 259.30789185 253.38652039 C256.33373948 262.74598723 253.40169531 272.11776658 250.5 281.5 C247.39362755 291.54402887 244.24799256 301.5746031 241.0625 311.59375 C240.85480988 312.24703781 240.64711975 312.90032562 240.43313599 313.57341003 C238.74532301 318.88104196 237.05502162 324.18788075 235.36462402 329.49468994 C229.5279235 347.81977575 223.75844924 366.16339992 218.07354736 384.53631592 C216.33748142 390.13754433 214.58931047 395.73497631 212.83984375 401.33203125 C212.54807755 402.26556931 212.25631134 403.19910736 211.95570374 404.16093445 C210.94989574 407.37820423 209.94367724 410.59534567 208.9375 413.8125 C206.648125 421.134375 204.35875 428.45625 202 436 C181.54 436 161.08 436 140 436 C132.10090344 412.39674719 124.3117069 388.76429669 116.67010498 365.07672119 C115.67818212 362.00265475 114.6847032 358.92909142 113.69140625 355.85546875 C107.30816224 336.09244465 100.9503184 316.32121057 94.58491421 296.55243492 C90.3930422 283.53395596 86.20102194 270.5155298 82 257.5 C76.94527542 241.8395442 71.90321222 226.17501 66.85955811 210.51098633 C59.93483942 189.00386223 59.93483942 189.00386223 53 167.5 C47.94527542 151.8395442 42.90321222 136.17501 37.85955811 120.51098633 C31.52306904 100.82825307 31.52306904 100.82825307 25.17733765 81.14849854 C24.40419711 78.75258254 23.63141942 76.35654942 22.85903931 73.96038818 C20.38361089 66.28160356 17.90063687 58.60533096 15.40963745 50.93157959 C13.89578785 46.26558885 12.38528375 41.59852043 10.87574577 36.93113327 C9.76830339 33.50760347 8.65923473 30.08461864 7.54638672 26.6628418 C6.29442103 22.81320791 5.04933222 18.96138212 3.8046875 15.109375 C3.42085907 13.93280334 3.03703064 12.75623169 2.64157104 11.54400635 C2.11879074 9.92072418 2.11879074 9.92072418 1.58544922 8.26464844 C1.27807831 7.31668396 0.9707074 6.36871948 0.65402222 5.39202881 C0 3 0 3 0 0 Z " fill="#000000" transform="translate(851,331)"/>
<path d="M0 0 C1.9651355 0.00749268 1.9651355 0.00749268 3.9699707 0.01513672 C22.03399313 0.33940577 37.60883753 5.46390211 50.9609375 18.07421875 C60.24827188 28.19252515 62.63840297 38.73340978 62.60742188 52.06933594 C62.61477278 53.43034558 62.62336197 54.791349 62.63308716 56.15234375 C62.65520876 59.83030014 62.65823844 63.50803187 62.65633965 67.18604565 C62.65621947 70.26714295 62.66480311 73.34819347 62.67311716 76.42927766 C62.69231898 83.70581356 62.69524743 90.98223477 62.68847656 98.25878906 C62.68184369 105.73882957 62.70467681 113.21837598 62.74179029 120.69831634 C62.77259336 127.1428019 62.78383573 133.58712942 62.77995348 140.03168702 C62.77789625 143.87072035 62.78320416 147.7093693 62.80784607 151.54833221 C62.83028624 155.16343614 62.82809469 158.77774358 62.80791855 162.39285278 C62.80294157 164.3323448 62.82240363 166.27185285 62.84292603 168.21124268 C62.72062371 181.11836721 58.12541774 191.35842518 49.19140625 200.5546875 C34.91141865 214.04558488 18.90450508 216.85932887 -0.0625 216.875 C-1.32940674 216.87677246 -2.59631348 216.87854492 -3.90161133 216.88037109 C-22.73337408 216.65657868 -38.00774769 212.61793036 -51.9609375 199.4765625 C-59.49197135 191.72155738 -63.91301647 181.72523268 -63.95967102 170.89195251 C-63.96682632 169.74961151 -63.97398163 168.60727051 -63.98135376 167.43031311 C-63.98404266 166.18092453 -63.98673157 164.93153595 -63.98950195 163.64428711 C-63.99607315 162.32513306 -64.00264435 161.005979 -64.00941467 159.64685059 C-64.0304197 155.27369393 -64.04081664 150.90053709 -64.05078125 146.52734375 C-64.05483073 145.01818893 -64.05894771 143.50903429 -64.06313133 141.99987984 C-64.08217855 134.90546695 -64.09640817 127.81106441 -64.1047433 120.71663088 C-64.11450148 112.54721522 -64.14078562 104.37807153 -64.18124419 96.20875162 C-64.21149164 89.8824345 -64.22622049 83.55619494 -64.22952431 77.22980696 C-64.2318658 73.4572854 -64.24070711 69.68505451 -64.26598549 65.91261101 C-64.28942177 62.35760314 -64.29343791 58.8030741 -64.28322411 55.24800873 C-64.28249976 53.33809276 -64.301483 51.42820025 -64.32128906 49.51838684 C-64.24479641 36.71698874 -60.23873797 27.10912406 -51.8125 17.5 C-37.66282213 3.51963451 -19.27052001 -0.09716857 0 0 Z " fill="#010100" transform="translate(938.8125,988.5)"/>
<path d="M0 0 C0.98097656 0.43441406 1.96195313 0.86882813 2.97265625 1.31640625 C17.48869123 8.4825501 27.85161903 21.04064094 33.5 36.0625 C35.50522432 42.0874564 36.17612635 47.77453218 36.31640625 54.109375 C36.33736862 54.9238913 36.35833099 55.73840759 36.37992859 56.5776062 C36.4470897 59.30163273 36.50588547 62.02573459 36.5625 64.75 C36.58268188 65.69607117 36.60286377 66.64214233 36.62365723 67.61688232 C36.95744537 83.72333066 37.15982707 99.83229361 37.23117065 115.9420166 C37.24351402 118.35635524 37.26085254 120.77067465 37.28372192 123.18493652 C37.82955826 184.68213827 37.82955826 184.68213827 19.125 204.375 C3.42265172 218.89226539 -16.43319212 218.72511351 -36.70263672 218.17919922 C-51.35066842 217.38313412 -65.09942637 210.83635563 -75 200 C-87.52325095 183.45938934 -90 165.57446975 -90 145 C-76.47 145 -62.94 145 -49 145 C-48.01 152.425 -48.01 152.425 -47 160 C-44.9111211 165.97851547 -43.4804957 169.57469019 -38 173 C-37.45988281 173.35449219 -36.91976563 173.70898438 -36.36328125 174.07421875 C-32.8598659 175.44663104 -29.39598074 175.36858949 -25.6875 175.375 C-24.95337891 175.39949219 -24.21925781 175.42398437 -23.46289062 175.44921875 C-17.8490765 175.47910596 -14.60012788 174.24034165 -10 171 C-5.12143769 165.52099926 -4.86904864 158.49978665 -4.90234375 151.5078125 C-4.90556641 150.30898437 -4.90878906 149.11015625 -4.91210938 147.875 C-4.92048828 146.6375 -4.92886719 145.4 -4.9375 144.125 C-4.94201172 142.86429688 -4.94652344 141.60359375 -4.95117188 140.3046875 C-4.9629204 137.20307614 -4.97934833 134.10156275 -5 131 C-6.11665039 131.31831787 -6.11665039 131.31831787 -7.25585938 131.64306641 C-14.12483659 133.49716889 -20.3931185 134.49233059 -27.5 134.375 C-28.41072266 134.36412354 -29.32144531 134.35324707 -30.25976562 134.34204102 C-47.468683 133.93573639 -60.93419058 127.23635089 -73 115 C-73.64710937 114.36320312 -74.29421875 113.72640625 -74.9609375 113.0703125 C-90.74975115 96.45413743 -90.75800776 74.39632939 -90.29660034 52.9707489 C-90.02951462 44.90609838 -88.54020827 38.25836351 -85 31 C-84.55398438 30.07316406 -84.10796875 29.14632812 -83.6484375 28.19140625 C-76.15117807 14.43246926 -63.66231036 3.38365777 -49 -2 C-48.14535156 -2.3196875 -47.29070312 -2.639375 -46.41015625 -2.96875 C-31.30398545 -7.65014583 -14.29912705 -6.47151368 0 0 Z " fill="#010100" transform="translate(1130,989)"/>
<path d="M0 0 C11.55 0 23.1 0 35 0 C38.72023438 -0.00902344 42.44046875 -0.01804687 46.2734375 -0.02734375 C50.94921875 0.01367188 50.94921875 0.01367188 53.16162109 0.04272461 C54.67653473 0.05625958 56.19161313 0.05625783 57.70654297 0.04467773 C71.30919496 -0.04427463 80.41710133 2.79974239 90.875 12.125 C100.80432668 22.80405485 104.35474317 34.71861465 104.25 48.9375 C104.26160156 50.50661133 104.26160156 50.50661133 104.2734375 52.10742188 C104.24073809 65.11361195 100.36139134 76.87642296 92 87 C82.28741628 96.47360978 72.33427681 100.64973562 58.86950684 100.5657959 C57.37783673 100.5406352 55.88617778 100.51480336 54.39453125 100.48828125 C52.99590047 100.48091014 51.5972558 100.4758214 50.1986084 100.47302246 C45.06969232 100.44703584 39.94107343 100.37723012 34.8125 100.3125 C17.5803125 100.1578125 17.5803125 100.1578125 0 100 C0 67 0 34 0 0 Z " fill="#FAE91B" transform="translate(1270,801)"/>
<path d="M0 0 C46.82617188 0 46.82617188 0 52.78930664 0.09765625 C54.26251362 0.11640829 55.7359056 0.12328392 57.20922852 0.12011719 C71.30532257 0.10210493 81.46092012 3.65299062 91.8125 13.58984375 C95.28621033 17.41712817 97.77413194 21.3465446 100 26 C100.4125 26.81082031 100.825 27.62164063 101.25 28.45703125 C104.23495481 35.53593449 104.38332242 42.5528185 104.4375 50.125 C104.44765137 51.13836426 104.45780273 52.15172852 104.46826172 53.19580078 C104.31888194 66.12030793 99.96255342 78.54284631 91.0859375 88.1171875 C83.3515822 95.09838461 74.21767296 100.39688595 63.68774414 100.34057617 C62.98313521 100.34093778 62.27852629 100.34129938 61.55256557 100.34167194 C59.29646222 100.33945227 57.04112465 100.31669846 54.78515625 100.29296875 C53.38244992 100.28855182 51.97973864 100.28549503 50.57702637 100.28381348 C45.40544163 100.26815526 40.2339631 100.22627139 35.0625 100.1875 C23.491875 100.125625 11.92125 100.06375 0 100 C0 67 0 34 0 0 Z " fill="#FAE91B" transform="translate(711,801)"/>
<path d="M0 0 C11.4675 -0.103125 22.935 -0.20625 34.75 -0.3125 C40.14617676 -0.38078003 40.14617676 -0.38078003 45.65136719 -0.45043945 C50.10400391 -0.47302246 50.10400391 -0.47302246 52.20001221 -0.47721863 C53.63873061 -0.48480901 55.07742075 -0.50220922 56.51593018 -0.52787781 C71.13085849 -0.77522911 82.26134756 2.66404703 93 13 C102.02414593 23.01602404 105.357552 33.66379103 105.25 46.9375 C105.26160156 48.36352539 105.26160156 48.36352539 105.2734375 49.81835938 C105.23804694 62.65628337 101.26317742 73.88665626 92.375 83.375 C84.6794763 90.62677575 75.63002041 95.13198956 65.05004883 95.11352539 C63.97899037 95.11370619 63.97899037 95.11370619 62.88629436 95.11389065 C60.57650823 95.11314466 58.26680294 95.10553073 55.95703125 95.09765625 C54.5303959 95.09618586 53.10376002 95.09516575 51.67712402 95.09460449 C46.38890779 95.08936288 41.1007031 95.07540168 35.8125 95.0625 C23.994375 95.041875 12.17625 95.02125 0 95 C0 63.65 0 32.3 0 0 Z " fill="#FAE81B" transform="translate(1269,627)"/>
<path d="M0 0 C17.1703125 -0.185625 17.1703125 -0.185625 34.6875 -0.375 C40.07002075 -0.45693604 40.07002075 -0.45693604 45.5612793 -0.54052734 C50.00939941 -0.56762695 50.00939941 -0.56762695 52.10456848 -0.57266235 C53.53994474 -0.58175926 54.97528085 -0.60261457 56.41035461 -0.63345337 C70.70745788 -0.92480627 82.44942656 2.94164398 93 13 C104.75859069 25.64653919 105.71162758 39.89224137 105.17919922 56.27832031 C104.39767372 68.14813809 97.71262429 78.05826955 89.35546875 86.140625 C82.153575 91.82570199 74.16067244 95.12942526 65.05004883 95.11352539 C63.97899037 95.11370619 63.97899037 95.11370619 62.88629436 95.11389065 C60.57650823 95.11314466 58.26680294 95.10553073 55.95703125 95.09765625 C54.5303959 95.09618586 53.10376002 95.09516575 51.67712402 95.09460449 C46.38890779 95.08936288 41.1007031 95.07540168 35.8125 95.0625 C23.994375 95.041875 12.17625 95.02125 0 95 C0 63.65 0 32.3 0 0 Z " fill="#FAE81B" transform="translate(710,627)"/>
<path d="M0 0 C4.7191605 2.22985593 8.30316889 4.48933881 11.06640625 9.0546875 C11.99840544 11.85068508 12.19580506 13.54713279 12.20684814 16.43721008 C12.21255829 17.3329776 12.21826843 18.22874512 12.22415161 19.1516571 C12.22526947 20.13197403 12.22638733 21.11229095 12.22753906 22.12231445 C12.23498642 23.67396301 12.23498642 23.67396301 12.24258423 25.25695801 C12.25721222 28.68563498 12.26400896 32.11426568 12.26953125 35.54296875 C12.2752822 37.92327374 12.28103994 40.30357871 12.2868042 42.68388367 C12.29731602 47.67817399 12.3031575 52.67244821 12.30664062 57.66674805 C12.3121255 64.06596949 12.33615283 70.46497817 12.36461258 76.86413288 C12.3832372 81.78234987 12.38844448 86.7005156 12.3899765 91.61876488 C12.39300398 93.97786815 12.40103566 96.3369705 12.41416168 98.6960392 C12.43121797 101.99714972 12.42934269 105.29774024 12.42285156 108.59887695 C12.43667374 110.0602433 12.43667374 110.0602433 12.45077515 111.5511322 C12.41837339 116.81199356 12.0405097 120.52126228 9.06640625 125.0546875 C3.80115162 130.20027725 -1.46717236 133.15203797 -8.87109375 133.4921875 C-15.48377335 133.27109487 -19.88923875 130.8323875 -24.80859375 126.5546875 C-27.91739405 122.89727538 -29.18066888 120.28672225 -29.20101929 115.47598267 C-29.20954926 114.56201218 -29.21807922 113.64804169 -29.22686768 112.70637512 C-29.2259613 111.710952 -29.22505493 110.71552887 -29.22412109 109.68994141 C-29.23083832 108.63585587 -29.23755554 107.58177032 -29.24447632 106.4957428 C-29.26349057 103.00753072 -29.26738224 99.51951069 -29.26953125 96.03125 C-29.27595668 93.60753296 -29.28268484 91.18381671 -29.28970337 88.76010132 C-29.30168464 83.67761435 -29.3053833 78.59519541 -29.30419922 73.51269531 C-29.30399596 67.00019468 -29.33130202 60.48813008 -29.36574364 53.9757328 C-29.38798108 48.9691467 -29.39203772 43.96266606 -29.39097977 38.95603561 C-29.39334033 36.55506258 -29.40218932 34.15408684 -29.4176445 31.75316238 C-29.43724027 28.39453849 -29.43149093 25.03686181 -29.41943359 21.67822266 C-29.43067261 20.68684799 -29.44191162 19.69547333 -29.45349121 18.67405701 C-29.40126439 12.94888759 -28.80994425 9.57063221 -24.93359375 5.0546875 C-17.61416102 -1.53280195 -9.54481224 -3.07569183 0 0 Z " fill="#FBE91B" transform="translate(945.93359375,1032.9453125)"/>
<path d="M0 0 C4.52493402 2.88649555 7.29597513 6.73439186 9.5625 11.5625 C10.33795535 15.64101348 10.31604207 19.54844539 10.1875 23.6875 C10.19716797 25.25564453 10.19716797 25.25564453 10.20703125 26.85546875 C10.09474352 34.92997728 8.41909259 39.17969299 3.1875 45.375 C-2.10751541 49.78751284 -7.68787627 50.11566603 -14.390625 50.015625 C-20.14839055 49.15934192 -24.37951675 45.94995157 -28.12109375 41.609375 C-31.56822241 36.24944795 -30.77276652 29.45355937 -30.875 23.3125 C-30.92076172 22.20519531 -30.96652344 21.09789062 -31.01367188 19.95703125 C-31.10501944 13.2767441 -30.45930264 9.22727733 -26.03369141 4.10839844 C-18.9991196 -2.70452733 -9.08789684 -3.79244926 0 0 Z " fill="#F9E81B" transform="translate(1116.4375,1032.4375)"/>
</svg>
